<?xml version="1.0" encoding="UTF-8" standalone="no"?>
<!DOCTYPE svg PUBLIC "-//W3C//DTD SVG 1.1//EN"
 "http://www.w3.org/Graphics/SVG/1.1/DTD/svg11.dtd">
<!-- Generated by graphviz version 2.28.0 (20121201.1712)
 -->
<!-- Title: G Pages: 1 -->
<svg width="364pt" height="205pt"
 viewBox="0.00 0.00 364.00 205.00" xmlns="http://www.w3.org/2000/svg" xmlns:xlink="http://www.w3.org/1999/xlink">
<g id="graph1" class="graph" transform="scale(1 1) rotate(0) translate(4 201)">
<title>G</title>
<polygon fill="white" stroke="white" points="-4,5 -4,-201 361,-201 361,5 -4,5"/>
<g id="graph2" class="cluster"><title>cluster_global</title>
<polyline fill="none" stroke="gray" points="182,-8 336,-8 "/>
<path fill="none" stroke="gray" d="M336,-8C342,-8 348,-14 348,-20"/>
<polyline fill="none" stroke="gray" points="348,-20 348,-177 "/>
<path fill="none" stroke="gray" d="M348,-177C348,-183 342,-189 336,-189"/>
<polyline fill="none" stroke="gray" points="336,-189 182,-189 "/>
<path fill="none" stroke="gray" d="M182,-189C176,-189 170,-183 170,-177"/>
<polyline fill="none" stroke="gray" points="170,-177 170,-20 "/>
<path fill="none" stroke="gray" d="M170,-20C170,-14 176,-8 182,-8"/>
<text text-anchor="middle" x="259" y="-174" font-family="Times,serif" font-size="11.00" fill="gray">global</text>
</g>
<!-- \\RavenToolsAPI -->
<g id="node2" class="node"><title>\\RavenToolsAPI</title>
<a xlink:href="class.raven-api-php.html" xlink:title="RavenToolsAPI" target="_parent">
<polygon fill="none" stroke="black" points="309.814,-160 208.186,-160 208.186,-124 309.814,-124 309.814,-160"/>
<text text-anchor="middle" x="259" y="-137.6" font-family="Courier,monospace" font-size="11.00">RavenToolsAPI</text>
</a>
</g>
<!-- \\RavenToolsAPITransport -->
<g id="node3" class="node"><title>\\RavenToolsAPITransport</title>
<a xlink:href="class.raven-api-php.html" xlink:title="RavenToolsAPITransport" target="_parent">
<polygon fill="none" stroke="black" points="339.724,-106 178.276,-106 178.276,-70 339.724,-70 339.724,-106"/>
<text text-anchor="middle" x="259" y="-83.6" font-family="Courier,monospace" font-size="11.00">RavenToolsAPITransport</text>
</a>
</g>
<!-- \\RavenToolsAPIException -->
<g id="node4" class="node"><title>\\RavenToolsAPIException</title>
<a xlink:href="class.raven-api-php.html" xlink:title="RavenToolsAPIException" target="_parent">
<polygon fill="none" stroke="black" points="339.724,-52 178.276,-52 178.276,-16 339.724,-16 339.724,-52"/>
<text text-anchor="middle" x="259" y="-29.6" font-family="Courier,monospace" font-size="11.00">RavenToolsAPIException</text>
</a>
</g>
<!-- \\Exception -->
<g id="node6" class="node"><title>\\Exception</title>
<ellipse fill="none" stroke="black" cx="53" cy="-34" rx="52.7417" ry="18"/>
<text text-anchor="middle" x="53" y="-28.4" font-family="Times,serif" font-size="14.00" fill="gray">\Exception</text>
</g>
<!-- \\RavenToolsAPIException&#45;&gt;\\Exception -->
<g id="edge3" class="edge"><title>\\RavenToolsAPIException&#45;&gt;\\Exception</title>
<path fill="none" stroke="black" d="M178.252,-34C157.602,-34 135.672,-34 116.077,-34"/>
<polygon fill="none" stroke="black" points="116.062,-30.5001 106.062,-34 116.062,-37.5001 116.062,-30.5001"/>
</g>
</g>
</svg>
